<?xml version="1.0" standalone="no"?><svg xmlns="http://www.w3.org/2000/svg" viewBox="0 0 1440 320"><path fill="#e9e51a" fill-opacity="1" d="M0,128L36.9,64L73.8,224L110.8,32L147.7,256L184.6,288L221.5,32L258.5,256L295.4,192L332.3,288L369.2,128L406.2,256L443.1,128L480,96L516.9,96L553.8,128L590.8,224L627.7,32L664.6,64L701.5,192L738.5,96L775.4,224L812.3,96L849.2,0L886.2,160L923.1,160L960,160L996.9,96L1033.8,224L1070.8,64L1107.7,256L1144.6,32L1181.5,64L1218.5,256L1255.4,288L1292.3,128L1329.2,96L1366.2,128L1403.1,160L1440,96L1440,0L1403.1,0L1366.2,0L1329.2,0L1292.3,0L1255.4,0L1218.5,0L1181.5,0L1144.6,0L1107.7,0L1070.8,0L1033.8,0L996.9,0L960,0L923.1,0L886.2,0L849.2,0L812.3,0L775.4,0L738.5,0L701.5,0L664.6,0L627.7,0L590.8,0L553.8,0L516.9,0L480,0L443.1,0L406.2,0L369.2,0L332.3,0L295.4,0L258.5,0L221.5,0L184.6,0L147.7,0L110.8,0L73.8,0L36.9,0L0,0Z"></path></svg>